<?xml version="1.0" standalone="no"?>
<!DOCTYPE svg PUBLIC "-//W3C//DTD SVG 20010904//EN"
 "http://www.w3.org/TR/2001/REC-SVG-20010904/DTD/svg10.dtd">
<svg version="1.0" xmlns="http://www.w3.org/2000/svg"
 width="399.000000pt" height="266.000000pt" viewBox="0 0 399.000000 266.000000"
 preserveAspectRatio="xMidYMid meet">

<g transform="translate(0.000000,266.000000) scale(0.100000,-0.100000)"
fill="#000000" stroke="none">
<path d="M3085 2450 c-327 -37 -579 -234 -750 -585 -97 -198 -134 -359 -142
-605 -4 -153 -2 -188 17 -280 56 -273 209 -493 415 -595 204 -100 518 -106
742 -13 135 56 276 175 365 310 73 109 159 302 142 317 -9 8 -355 71 -392 71
-14 0 -22 -12 -31 -42 -39 -130 -136 -255 -238 -304 -79 -39 -212 -46 -294
-15 -77 29 -132 80 -169 154 -43 89 -53 158 -47 332 6 172 30 313 84 480 87
272 193 382 378 393 130 7 213 -28 273 -117 47 -69 64 -125 69 -234 5 -83 8
-97 22 -93 9 2 102 7 206 11 260 8 245 3 239 73 -23 268 -108 450 -272 581
-155 124 -394 187 -617 161z"/>
<path d="M967 2348 c-64 -138 -919 -1932 -938 -1970 l-19 -38 227 0 228 0 99
230 100 230 347 0 346 0 16 -103 c9 -56 24 -159 34 -229 l17 -128 249 0 249 0
-6 27 c-3 16 -80 473 -171 1018 -92 545 -169 1000 -172 1013 l-5 22 -284 0
-283 0 -34 -72z m278 -773 c30 -209 57 -390 60 -402 l5 -23 -246 0 c-193 0
-245 3 -241 13 6 15 312 715 340 777 11 25 22 38 24 30 1 -8 28 -186 58 -395z"/>
</g>
</svg>
