<?xml version="1.0" standalone="no"?>
<!DOCTYPE svg PUBLIC "-//W3C//DTD SVG 20010904//EN"
 "http://www.w3.org/TR/2001/REC-SVG-20010904/DTD/svg10.dtd">
<svg version="1.0" xmlns="http://www.w3.org/2000/svg"
 width="1920.000000pt" height="2048.000000pt" viewBox="0 0 1920.000000 2048.000000"
 preserveAspectRatio="xMidYMid meet">

<g transform="translate(0.000000,2048.000000) scale(0.100000,-0.100000)"
fill="#000000" stroke="none">
<path d="M10237 19880 c-26 -70 -115 -685 -182 -1255 -40 -342 -62 -461 -125
-670 -14 -46 -24 -118 -30 -210 -4 -77 -11 -148 -15 -158 -6 -15 -18 -17 -69
-15 l-61 3 0 -175 c0 -96 -4 -181 -8 -187 -5 -7 -22 -13 -38 -13 -50 0 -61
-42 -69 -275 -5 -110 -11 -208 -15 -218 -6 -15 -16 -18 -44 -14 -49 5 -86 -9
-100 -40 -37 -82 -32 -328 9 -449 11 -32 18 -64 16 -71 -7 -17 -43 -16 -153 6
l-93 18 0 -34 c0 -188 40 -651 62 -725 17 -56 6 -60 -140 -54 l-122 6 5 -118
c8 -168 31 -300 76 -438 21 -66 39 -123 39 -127 0 -3 -42 -3 -92 0 -82 5 -96
3 -116 -14 -51 -41 -35 -165 53 -406 25 -69 45 -132 45 -140 0 -21 -20 -26
-71 -16 -73 14 -126 11 -133 -7 -12 -31 -6 -130 14 -209 23 -98 54 -187 113
-327 52 -126 60 -119 -101 -88 -56 11 -106 20 -110 20 -10 0 13 -198 38 -326
27 -136 80 -315 134 -454 25 -63 46 -121 46 -127 0 -18 -72 -17 -187 3 -52 9
-97 13 -100 10 -17 -17 85 -373 188 -656 27 -74 49 -143 49 -154 0 -17 -6 -18
-86 -12 -96 8 -114 1 -114 -44 0 -79 144 -531 214 -671 l43 -87 -114 -4 c-96
-3 -117 -6 -128 -21 -13 -18 -13 -26 7 -107 14 -59 147 -431 209 -588 27 -67
49 -131 49 -142 0 -22 -12 -26 -108 -34 -93 -8 -106 -18 -97 -73 23 -153 129
-477 225 -687 50 -108 66 -153 57 -158 -7 -4 -41 -8 -77 -8 -36 0 -71 -4 -79
-9 -38 -25 26 -252 181 -641 49 -124 99 -247 109 -274 l20 -49 -33 7 c-83 18
-137 19 -143 3 -12 -29 222 -699 281 -806 13 -24 24 -48 24 -54 0 -6 -14 -25
-31 -43 -28 -29 -31 -38 -30 -93 1 -107 64 -386 165 -739 61 -209 87 -327 110
-482 17 -116 40 -449 32 -458 -7 -7 -119 228 -211 443 -153 360 -263 680 -370
1080 -113 424 -163 580 -194 600 -7 4 -23 -5 -36 -19 -20 -22 -29 -25 -44 -17
-26 14 -36 47 -81 271 -33 167 -174 747 -183 756 -1 1 -45 -31 -97 -71 -52
-41 -98 -75 -101 -75 -4 0 -9 28 -13 62 -18 165 -79 395 -217 820 -63 197 -83
248 -97 248 -9 0 -55 -29 -102 -64 -47 -35 -88 -62 -91 -60 -4 2 -9 41 -13 86
-14 167 -83 451 -177 731 -47 138 -65 177 -81 177 -6 0 -30 -18 -54 -40 -48
-44 -68 -49 -83 -22 -5 10 -28 109 -51 220 -63 311 -112 463 -152 470 -10 2
-40 -18 -71 -47 -88 -84 -107 -69 -119 93 -14 196 -87 539 -122 574 -18 18
-32 10 -127 -68 -41 -33 -79 -60 -85 -60 -17 0 -31 40 -58 165 -43 195 -188
622 -216 640 -12 8 -45 -10 -95 -50 -48 -39 -65 -45 -87 -33 -30 15 -49 65
-73 192 -28 144 -48 208 -82 258 -44 64 -41 65 -183 -60 l-60 -54 0 89 c0 135
-37 325 -101 520 -17 50 -36 96 -42 102 -19 15 -72 -15 -144 -83 -35 -32 -66
-56 -69 -53 -4 3 -14 50 -24 104 -23 127 -50 215 -121 398 -74 188 -128 289
-157 293 -14 2 -43 -18 -96 -68 -85 -81 -75 -84 -96 38 -22 126 -110 345 -166
411 -32 39 -60 39 -110 1 -47 -36 -64 -37 -91 -7 -30 32 -45 66 -98 217 -26
74 -60 163 -75 197 -30 66 -86 153 -99 153 -4 0 -33 -36 -66 -80 -32 -43 -61
-77 -65 -75 -4 2 -12 30 -20 62 -40 184 -207 510 -279 547 -16 9 -43 16 -59
16 -42 0 -79 45 -147 180 -65 127 -134 235 -193 302 -67 77 -212 282 -442 623
-238 352 -335 488 -417 583 -104 118 -98 89 44 -228 271 -606 349 -804 438
-1117 36 -124 65 -230 65 -235 0 -4 -15 -7 -32 -6 -28 3 -34 -1 -36 -20 -6
-39 45 -197 118 -367 79 -182 84 -212 43 -220 -76 -16 -78 -17 -77 -70 1 -91
129 -323 268 -485 31 -36 56 -68 56 -72 0 -5 -33 -8 -73 -8 -94 0 -112 -13
-108 -76 3 -51 138 -241 258 -362 35 -35 63 -70 63 -77 0 -22 -47 -52 -101
-66 -28 -8 -53 -19 -56 -26 -15 -39 58 -158 250 -405 73 -93 132 -174 132
-181 0 -7 -37 -22 -83 -34 -101 -26 -116 -37 -108 -77 10 -50 81 -133 288
-337 109 -108 198 -199 198 -201 0 -3 -40 -13 -89 -23 -92 -18 -147 -43 -158
-71 -16 -42 57 -128 388 -460 l261 -261 -73 -22 c-102 -30 -200 -71 -206 -87
-3 -7 5 -27 17 -44 52 -73 338 -306 503 -409 37 -24 67 -46 67 -49 0 -4 -26
-20 -58 -37 -31 -16 -72 -43 -89 -59 -56 -48 -49 -65 90 -201 141 -138 248
-225 384 -310 110 -69 128 -89 98 -111 -11 -8 -36 -19 -57 -24 -125 -33 -118
-29 -118 -58 0 -66 126 -200 335 -359 141 -107 204 -168 189 -183 -6 -6 -46
-25 -90 -43 -62 -26 -80 -38 -82 -55 -9 -60 229 -295 450 -443 173 -117 200
-157 134 -198 -18 -12 -43 -21 -54 -21 -71 0 -69 -40 4 -120 72 -77 172 -156
410 -323 104 -74 190 -140 192 -149 2 -8 -15 -26 -38 -42 -46 -30 -51 -55 -21
-114 39 -76 281 -285 570 -493 80 -57 146 -109 148 -115 2 -7 -16 -14 -47 -18
-27 -4 -50 -10 -50 -15 0 -21 32 -82 73 -136 54 -73 137 -155 237 -231 269
-206 375 -305 418 -389 67 -133 167 -242 538 -587 218 -203 411 -400 534 -548
87 -105 223 -307 282 -420 24 -47 68 -118 97 -158 29 -41 51 -76 48 -78 -6 -7
-154 102 -277 205 -182 151 -578 553 -726 736 -156 193 -319 365 -346 365 -11
0 -26 -13 -36 -31 -9 -18 -27 -43 -38 -58 l-22 -25 -28 48 c-57 97 -148 232
-222 330 -154 205 -324 406 -342 406 -5 0 -29 -32 -54 -70 -26 -39 -50 -70
-54 -70 -4 0 -15 19 -26 41 -51 111 -437 609 -472 609 -19 0 -51 -50 -77 -118
-12 -33 -26 -61 -32 -62 -5 -2 -33 35 -61 81 -63 100 -219 297 -346 436 -107
117 -143 147 -163 139 -9 -3 -37 -39 -63 -81 -26 -41 -52 -75 -57 -75 -6 0
-16 13 -23 29 -38 85 -440 501 -485 501 -30 0 -57 -30 -96 -108 -17 -34 -37
-62 -44 -62 -8 0 -23 22 -36 49 -40 89 -405 499 -495 557 l-29 18 -23 -29
c-12 -16 -35 -63 -50 -104 -15 -42 -30 -79 -34 -84 -3 -4 -37 32 -75 80 -119
153 -556 573 -595 573 -14 0 -44 -64 -76 -162 l-28 -87 -146 143 c-195 190
-428 381 -445 364 -3 -2 -17 -35 -33 -73 -40 -98 -47 -99 -118 -25 -114 121
-366 320 -404 320 -18 0 -42 -41 -55 -93 -13 -52 -24 -49 -162 55 -110 82
-285 189 -349 214 -53 20 -64 13 -64 -44 0 -20 -6 -35 -16 -39 -9 -3 -83 28
-182 80 -235 120 -311 150 -391 149 -56 -1 -78 5 -187 53 -214 95 -701 286
-929 365 -172 59 -336 92 -350 70 -15 -24 50 -72 330 -240 455 -274 845 -576
845 -656 0 -55 203 -230 359 -308 29 -15 64 -38 78 -52 21 -21 23 -30 17 -73
-11 -88 18 -116 299 -285 171 -104 210 -135 201 -160 -3 -8 -63 -53 -113 -83
-2 -1 18 -29 45 -63 74 -94 164 -152 361 -235 111 -46 193 -95 193 -115 0 -6
-14 -13 -30 -17 -17 -3 -35 -14 -41 -25 -25 -47 27 -150 99 -196 66 -43 281
-144 374 -177 119 -42 120 -44 59 -95 -28 -24 -51 -51 -51 -60 0 -30 70 -99
143 -142 149 -87 454 -214 590 -246 37 -9 67 -20 67 -26 0 -5 -29 -40 -65 -77
l-66 -68 16 -38 c22 -52 70 -99 130 -127 62 -30 249 -77 420 -106 155 -27 155
-27 155 -39 0 -5 -18 -31 -40 -57 -48 -58 -50 -84 -11 -146 64 -101 186 -157
500 -227 74 -17 145 -38 158 -46 22 -15 23 -20 18 -73 -6 -49 -4 -62 17 -92
41 -61 159 -110 415 -174 247 -61 323 -89 323 -117 0 -45 24 -122 47 -149 42
-50 198 -87 635 -150 130 -19 229 -38 257 -51 67 -30 110 -66 119 -102 11 -43
31 -51 297 -127 359 -102 1004 -304 1305 -408 303 -105 389 -137 385 -141 -3
-2 -175 2 -382 9 -208 7 -475 11 -593 9 -189 -4 -220 -7 -255 -24 -33 -17 -40
-25 -40 -50 -1 -38 -16 -41 -108 -19 -125 29 -501 18 -616 -18 l-34 -10 6 -54
c8 -78 0 -81 -213 -93 -182 -11 -296 -28 -405 -62 -83 -25 -91 -40 -59 -109
36 -79 31 -94 -36 -101 -149 -17 -404 -113 -487 -183 -40 -34 -46 -60 -21 -91
11 -14 18 -32 15 -39 -9 -23 -66 -61 -189 -126 -129 -69 -184 -113 -192 -153
-3 -15 -8 -37 -11 -50 -13 -65 -34 -83 -595 -525 -469 -368 -560 -451 -560
-506 0 -9 8 -16 19 -16 26 0 238 73 502 173 435 165 624 220 827 237 188 17
322 56 516 152 112 56 116 55 142 -25 40 -123 59 -120 394 58 100 53 139 57
208 20 88 -47 130 -37 423 99 103 47 210 91 239 98 46 11 58 9 118 -11 66 -23
68 -23 127 -7 33 10 170 71 305 136 135 66 266 125 292 132 l48 12 41 -42 c24
-24 52 -42 64 -42 52 0 639 307 1008 527 216 129 299 173 330 173 51 0 72
-194 64 -580 -12 -518 -66 -1143 -147 -1691 -58 -388 -62 -424 -57 -491 2 -37
10 -75 17 -83 32 -39 104 0 113 62 3 21 21 133 41 248 116 683 183 1326 216
2080 21 467 41 548 143 576 23 6 107 12 187 12 179 2 185 0 741 -192 947 -326
1411 -451 1759 -472 242 -14 305 -26 437 -83 129 -55 208 -73 299 -68 18 1 52
18 84 42 38 28 64 40 87 40 19 0 113 -18 209 -41 364 -84 466 -72 471 54 1 28
2 55 3 60 1 22 78 30 345 37 323 9 357 15 430 75 75 61 123 76 269 86 148 9
187 18 242 56 22 14 54 32 73 40 52 22 322 32 836 33 456 0 625 6 625 21 0 13
-132 95 -247 153 -258 129 -555 242 -726 276 -92 19 -106 25 -142 60 -22 22
-56 46 -75 54 -52 21 -490 106 -549 106 -54 0 -71 15 -71 63 0 46 -19 51 -224
58 -105 4 -199 10 -209 14 -22 9 -37 45 -37 86 0 52 -22 55 -273 32 -122 -11
-224 -18 -226 -16 -3 2 3 42 12 90 9 48 14 89 11 92 -6 6 -229 -24 -334 -45
-41 -8 -103 -24 -137 -35 -35 -11 -67 -18 -72 -15 -5 3 -6 25 -4 49 7 61 -10
73 -100 69 -87 -3 -255 -35 -359 -68 -93 -30 -108 -24 -108 40 0 23 -6 51 -14
61 -12 17 -18 17 -77 5 -115 -23 -442 -120 -529 -156 -120 -50 -115 -51 -115
28 0 36 -3 70 -8 74 -10 10 -301 -38 -457 -76 -71 -18 -155 -46 -193 -65 -38
-19 -73 -35 -78 -35 -5 0 -9 13 -9 28 0 82 -77 73 -560 -59 -322 -89 -557
-147 -623 -154 l-52 -6 25 21 c64 56 448 227 1100 488 739 296 900 371 1021
476 93 81 222 149 479 251 251 100 267 108 284 149 34 82 131 127 408 192 249
58 290 70 376 111 53 25 81 45 102 75 30 40 30 42 13 69 -10 15 -31 44 -47 64
-23 28 -27 41 -20 53 16 27 144 85 359 162 337 121 495 208 495 273 0 18 -14
37 -50 67 -78 65 -57 83 169 140 227 57 373 122 452 200 78 78 73 137 -21 218
-52 45 -56 62 -14 62 44 0 145 40 319 125 181 88 312 168 339 206 25 37 19 67
-24 122 -50 62 -48 65 78 112 266 99 442 216 442 295 0 21 -10 36 -40 60 -22
17 -40 38 -40 46 0 18 69 62 235 149 298 155 354 219 270 305 -25 25 -34 42
-29 54 4 9 63 45 133 78 255 124 361 192 361 234 0 13 -3 24 -7 24 -18 0 -102
82 -97 94 3 8 33 29 67 47 185 97 457 327 457 386 0 58 337 386 695 678 255
207 285 235 285 266 0 16 -2 29 -4 29 -10 0 -199 -80 -461 -195 -525 -230
-690 -295 -825 -324 -103 -23 -201 -70 -293 -140 -37 -28 -71 -51 -77 -51 -5
0 -10 15 -10 33 0 81 -37 84 -178 14 -163 -81 -240 -131 -390 -252 -24 -19
-52 -35 -62 -35 -20 0 -40 45 -40 91 0 16 -9 38 -20 49 -26 26 -44 19 -190
-77 -166 -109 -304 -216 -393 -306 -48 -48 -84 -77 -92 -73 -8 3 -29 34 -46
70 -17 36 -42 75 -54 86 -21 20 -25 20 -51 7 -101 -52 -534 -468 -578 -554
-14 -28 -30 -54 -36 -58 -20 -12 -48 16 -71 71 -42 101 -84 178 -97 182 -17 5
-177 -152 -277 -273 -45 -55 -117 -151 -160 -213 -43 -63 -81 -110 -85 -105
-5 4 -22 45 -40 90 -30 79 -63 133 -80 133 -16 0 -124 -106 -199 -195 -81 -98
-166 -224 -221 -327 l-34 -66 -59 54 c-84 78 -103 89 -122 74 -18 -15 -211
-284 -354 -495 -56 -82 -107 -150 -113 -150 -7 0 -26 24 -43 54 -38 65 -58 78
-92 60 -58 -31 -208 -236 -300 -410 -26 -50 -58 -102 -71 -116 l-24 -26 -47
47 c-26 25 -50 46 -53 46 -4 0 -26 -28 -49 -63 -24 -34 -84 -118 -135 -187
-120 -165 -178 -259 -210 -342 -16 -43 -31 -68 -41 -68 -8 0 -30 16 -48 36
-25 27 -38 34 -54 29 -71 -22 -391 -475 -534 -755 -32 -63 -62 -119 -66 -123
-5 -5 -24 8 -43 28 -30 32 -38 36 -55 26 -34 -18 -94 -92 -214 -263 -210 -301
-369 -486 -729 -851 -290 -295 -321 -319 -259 -201 115 215 537 807 850 1189
138 169 235 302 289 395 52 90 166 210 355 375 184 160 255 237 255 275 0 20
8 35 24 45 48 32 34 85 -22 85 -15 0 -34 5 -42 10 -18 11 -27 1 260 295 277
284 375 417 340 460 -7 8 -24 15 -39 15 -14 0 -32 4 -40 9 -35 22 17 83 278
321 58 52 133 128 169 170 59 69 112 157 112 188 0 7 -20 21 -44 32 -24 10
-47 23 -51 30 -12 20 25 62 259 295 223 221 298 309 311 367 6 23 1 33 -31 62
l-38 34 27 40 c14 22 90 98 169 168 78 71 155 142 170 158 33 33 98 163 98
194 0 24 -56 53 -137 72 -29 7 -53 13 -53 15 0 1 50 42 111 90 187 149 314
302 326 392 6 49 -10 64 -78 71 -27 2 -52 8 -55 13 -3 5 73 89 169 186 308
317 325 376 125 424 l-48 11 127 132 c195 202 279 308 381 477 l21 35 -117 33
c-64 19 -121 37 -126 42 -5 4 57 77 142 164 83 86 179 193 213 238 65 87 119
187 119 224 0 20 -23 52 -38 54 -91 7 -165 19 -177 29 -28 23 -15 57 80 200
98 148 218 377 254 487 22 65 27 128 12 151 -11 17 -72 31 -138 32 -29 0 -53
2 -53 5 0 3 36 78 81 167 96 192 163 353 184 440 16 69 10 137 -12 145 -8 3
-41 0 -75 -7 -41 -8 -64 -8 -71 -1 -7 7 12 58 61 163 162 352 175 418 81 418
-53 0 -51 13 16 152 84 173 103 272 64 322 -28 36 -23 85 32 328 76 337 164
637 280 950 75 205 132 391 144 472 6 47 6 49 -11 35 -59 -48 -218 -297 -270
-421 -39 -95 -150 -289 -369 -648 -193 -318 -231 -385 -254 -453 l-18 -52 -55
0 c-39 0 -62 -5 -75 -18 -43 -38 -123 -246 -123 -318 0 -42 -24 -56 -63 -36
-18 9 -39 22 -49 29 -13 9 -20 9 -33 -2 -46 -38 -133 -272 -144 -386 -4 -40
-10 -77 -15 -81 -4 -4 -24 2 -44 15 -20 12 -57 32 -80 45 -43 22 -44 22 -58 2
-25 -33 -64 -174 -85 -300 -21 -128 -32 -165 -49 -165 -6 0 -33 18 -59 40 -26
22 -52 40 -58 40 -20 0 -76 -73 -104 -136 -41 -89 -69 -205 -78 -321 -5 -56
-12 -106 -16 -112 -12 -21 -45 -11 -121 39 -42 28 -84 50 -94 50 -39 0 -121
-283 -140 -483 -28 -281 -23 -275 -135 -199 -42 29 -83 52 -90 52 -32 0 -85
-235 -109 -489 -8 -78 -19 -148 -26 -156 -24 -30 -66 -17 -134 42 -71 60 -77
52 -130 -162 -33 -133 -46 -235 -46 -356 0 -54 -2 -99 -5 -99 -2 0 -39 23 -81
50 -86 56 -114 61 -138 26 -40 -62 -100 -338 -136 -629 -11 -88 -20 -165 -20
-170 0 -16 -24 -1 -134 83 -59 45 -109 80 -112 77 -15 -14 -54 -192 -73 -323
-18 -130 -51 -469 -51 -525 0 -26 -10 -24 -79 16 -81 48 -142 69 -152 54 -8
-14 -38 -206 -74 -474 -25 -194 -46 -290 -65 -309 -7 -7 -31 -3 -80 14 l-70
24 -20 -20 c-37 -37 -57 -186 -81 -609 -6 -115 -13 -211 -14 -213 -2 -2 -31
15 -66 38 -65 42 -101 56 -117 46 -20 -12 -60 -389 -68 -641 -6 -193 -20 -251
-61 -261 -19 -5 -32 1 -61 30 -21 19 -52 38 -69 42 -45 9 -56 -18 -64 -168 -8
-135 -22 -198 -44 -198 -20 0 -35 32 -35 72 0 19 -6 43 -14 53 -12 17 -18 17
-71 7 -32 -7 -69 -12 -81 -12 -29 0 -33 -13 81 236 136 294 178 443 144 506
-10 18 -17 19 -70 13 -51 -6 -59 -5 -59 10 0 9 39 100 86 203 115 248 183 428
191 502 6 58 5 60 -21 70 -15 5 -54 10 -87 10 -32 0 -59 4 -59 10 0 5 36 99
79 207 138 345 175 476 169 593 l-3 65 -35 -1 c-19 -1 -65 -5 -102 -9 -41 -5
-68 -4 -68 1 0 6 35 86 79 179 168 364 230 572 191 646 -13 23 -68 26 -126 6
-77 -27 -94 -29 -94 -10 0 10 21 63 46 118 147 321 168 393 199 670 l4 41 -97
-33 c-109 -37 -145 -39 -150 -7 -2 12 28 84 67 160 123 247 201 497 204 656 2
111 -2 115 -86 100 -86 -16 -127 -15 -127 2 0 7 11 38 24 67 65 148 176 510
176 574 0 17 -5 36 -12 43 -15 15 -102 15 -185 1 -35 -6 -67 -9 -70 -6 -3 3 9
45 26 94 38 103 63 208 85 353 17 110 26 313 14 325 -4 4 -49 -7 -100 -24
-105 -35 -138 -39 -138 -15 0 9 15 62 34 117 62 182 106 421 106 575 0 43 -4
62 -12 62 -7 0 -59 -8 -115 -17 -123 -21 -135 -16 -104 46 31 59 58 234 75
490 9 123 15 225 14 227 -2 1 -41 -7 -87 -17 -52 -13 -87 -17 -93 -11 -6 6 -3
30 6 63 31 107 47 386 26 473 -10 46 -23 56 -72 56 -60 0 -62 11 -54 280 5
157 3 246 -4 264 -9 26 -13 27 -55 21 -56 -9 -54 -16 -57 220 -3 151 -6 184
-20 205 -53 77 -108 691 -123 1360 -4 146 -11 321 -16 390 -9 124 -32 229 -42
200z m627 -11581 c17 -88 -4 -433 -28 -457 -13 -13 -20 -13 -57 2 -40 16 -44
16 -55 1 -7 -9 -15 -37 -19 -63 -3 -26 -9 -58 -12 -71 -6 -23 -6 -23 -22 10
-10 21 -25 35 -39 37 -27 4 -27 -1 -1 90 26 93 93 261 149 372 61 122 73 133
84 79z m-274 -1186 c-17 -137 -53 -273 -96 -359 -45 -91 -58 -104 -75 -72 -21
37 -14 126 16 208 29 80 156 333 163 325 3 -2 -1 -48 -8 -102z"/>
</g>
</svg>
